# xmcd
#
# Track frame offsets: 
#        182
#        17105
#        30700
#        47395
#        61740
#        70312
#        84382
#        98762
#        107950
#        117212
#        124832
#        137992
#        146197
#
# Disc length: 2166 seconds
#
# Revision: 0
# Processed by: cddbd v1.4PL0 Copyright (c) Steve Scherf et al.
# Submitted via: ExactAudioCopy v0.90a11
#
DISCID=b508740d
DTITLE=This Sucks - Foo Bar
DYEAR=1900
DGENRE=
TTITLE0=blah
TTITLE1=blah
TTITLE2=blah
TTITLE3=blah
TTITLE4=blah
TTITLE5=blah
TTITLE6=blah
TTITLE7=blah
TTITLE8=blah
TTITLE9=blah
TTITLE10=blah
TTITLE11=blah
TTITLE12=blah
EXTD=
EXTT0=
EXTT1=
EXTT2=
EXTT3=
EXTT4=
EXTT5=
EXTT6=
EXTT7=
EXTT8=
EXTT9=
EXTT10=
EXTT11=
EXTT12=
PLAYORDER=
